<?xml version="1.0" encoding="UTF-8" standalone="no"?><!DOCTYPE svg PUBLIC "-//W3C//DTD SVG 1.1//EN" "http://www.w3.org/Graphics/SVG/1.1/DTD/svg11.dtd"><svg width="100%" height="100%" viewBox="0 0 3125 2084" version="1.1" xmlns="http://www.w3.org/2000/svg" xmlns:xlink="http://www.w3.org/1999/xlink" xml:space="preserve" xmlns:serif="http://www.serif.com/" style="fill-rule:evenodd;clip-rule:evenodd;stroke-linejoin:round;stroke-miterlimit:2;"><g><g><rect x="0" y="-6.4" width="3128.2" height="2089.73" style="fill:#301321;"/><clipPath id="_clip1"><rect x="0" y="-6.4" width="3128.2" height="2089.73"/></clipPath><g clip-path="url(#_clip1)"><path d="M3128.2,366.584c-52.554,-15.339 -107.443,-27.405 -159.455,-34.581c-249.255,-34.393 -506.643,-43.02 -758.818,-51.546c-282.205,-9.546 -555.226,-1.053 -833.623,18.983c-151.001,10.871 -297.317,29.411 -449.669,37.148c-166.849,8.467 -334.5,19.325 -500.432,25.218c-91.757,3.26 -181.327,-0.773 -269.668,-18.953c-47.765,-9.83 -102.959,-18.662 -156.535,-32.517l0,1125.45c149.461,47.546 321.312,49.807 466.511,59.888c254.001,17.633 517.458,30.811 771.864,32.591c279.111,1.956 564.778,15.13 843.212,-4.672c201.749,-14.348 403.288,-9.931 603.952,-36.721c133.595,-17.83 302.684,-25.089 442.661,-79.063l0,-1041.22Z" style="fill:#220d1b;fill-rule:nonzero;"/><path d="M2090.26,1549.52c1.919,-1.103 3.796,-2.198 5.715,-3.176l-61.234,17.892c4.63,-0.832 9.43,-1.801 14.269,-2.863c5.172,-2.132 10.214,-2.992 15.428,-3.741c8.842,-2.361 17.606,-5.069 25.822,-8.112Z" style="fill:#290f1f;fill-rule:nonzero;"/><path d="M2109.37,1542.43l32.951,-9.63c-11.137,11.857 -20.563,8.25 -32.951,9.63Zm1069.18,-242.974c-10.844,-11.255 -21.188,-22.966 -30.364,-35.5c-24.859,-34.046 -52.595,-59.252 -96.808,-71.883c-16.808,-4.806 -16.1,-2.416 -28.654,-13.412c-8.717,-7.631 -13.68,-13.575 -24.608,-18.531c-21.272,-9.688 -44.087,-7.762 -67.486,-11.281c-21.23,-3.193 -28.654,-3.118 -49.009,4.543c-20.479,7.728 -35.703,2.136 -57.225,4.999c-47.715,6.34 -88.799,35.985 -124.294,66.909c-14.681,12.823 -31.365,30.686 -46.881,42.639c-7.424,5.726 -17.81,11.255 -25.359,15.673c-8.217,4.802 -8.926,12.856 -21.48,11.556c-1.752,28.584 -26.069,34.895 -46.59,46.99c-20.562,12.095 -26.026,19.397 -41.834,32.403c-34.327,28.195 -70.197,38.648 -113.533,48.302c-25.026,5.576 -47.549,10.119 -73.909,12.79c-28.196,2.854 -38.331,-12.585 -66.902,-3.482c0.042,2.6 -0.625,5.626 -0.667,8.242c-15.599,-6.34 -43.378,13.968 -56.141,24.425c-10.177,8.329 -14.39,21.913 -23.607,30.293c-9.593,8.693 -17.351,7.506 -27.946,14.552c-12.304,8.188 -15.098,19.205 -28.612,25.988c-6.09,3.051 -12.138,4.828 -18.227,6.867c-2.044,0.268 -4.171,0.673 -6.424,1.329c-2.085,0.606 -4.045,1.476 -6.005,2.475l9.301,-2.721c-1.835,0.656 -3.671,1.354 -5.548,2.152c-3.045,1.304 -6.214,2.541 -9.468,3.745c-3.879,2.223 -7.925,4.464 -12.767,5.734c-4.584,1.208 -8.884,1.777 -13.055,2.378c-5.168,1.367 -10.298,2.621 -15.428,3.741c-1.877,0.777 -3.754,1.663 -5.714,2.855c11.215,12.141 37.413,8.81 53.012,9.487c33.242,1.438 66.693,5.049 99.727,7.862c33.743,2.871 68.57,5.985 102.689,7.46c75.786,3.281 150.821,-7.088 226.523,-4.715c172.843,5.421 347.814,17.483 520.199,-1.638c38.122,-4.225 77.412,-2.131 114.617,-11.615c6.215,-1.579 12.346,-3.456 18.477,-5.496l-0,-266.115Z" style="fill:#290f1f;fill-rule:nonzero;"/><path d="M-58.393,929.796c75.227,4.305 119.105,27.321 176.105,66.75c36.854,25.495 42.852,62.646 75.19,91.13c25.809,22.723 74.104,24.291 106.492,41.706c49.096,26.402 62.063,52.461 117.699,46.773c23.208,-2.374 76.708,-20.592 95.836,-16.898c46.026,8.886 33.134,55.295 91.944,34.978c13.464,-4.652 43.945,-19.451 54.351,-29.377c15.27,-14.57 15.4,-36.729 33.163,-47.186c39.591,-23.305 72.195,29.866 99.873,46.174c19.604,11.548 35.228,13.701 55.582,24.049c24.6,12.509 36.592,37.339 61.309,52.298c43.186,26.134 85.788,13.466 129.628,3.08c76.053,-18.026 151.81,-55.495 232.425,-66.872c41.977,-5.926 81.914,16.054 126.276,4.477c50.301,-13.128 61.004,-36.316 107.084,-5.438c66.393,44.486 140.748,74.031 209.907,108.884c41.116,20.721 53.271,54.905 100.102,59.239c44.867,4.155 58.631,-28.616 98.968,-26.008c40.5,2.62 45.171,47.002 70.697,77.09c10.928,12.864 42.836,22.569 38.832,45.142c-3.754,21.341 -76.287,34.844 -96.641,38.748c-84.299,16.162 -180.401,-4.209 -266.494,-0.301c-100.131,4.547 -187.55,-12.852 -285.888,-22.949c-184.785,-18.967 -384.43,-27.856 -568.882,0.225c-121.132,18.44 -216.442,58.538 -341.203,29.198c-134.22,-31.567 -235.854,-136.526 -350.1,-206.478c-54.622,-33.444 -170.52,-106.622 -197.468,-169.766c-15.024,-35.199 4.984,-45.385 13.83,-79.493c6.532,-25.19 15.666,-73.969 11.383,-99.175Z" style="fill:#290f1f;fill-rule:nonzero;"/><path d="M3178.54,1564.54c-28.112,-8.329 -56.808,-15.819 -82.501,-26.059c-34.827,-13.867 -71.865,-13.098 -105.608,-26.222c-28.362,-11.05 -56.099,-24.09 -80.249,-42.927c-20.354,-15.89 -36.996,-48.223 -64.983,-48.557c-26.152,-0.309 -37.58,-9.057 -63.189,-16.563c-25.485,-7.461 -41.001,2.833 -66.694,7.903c-22.356,4.418 -38.289,4.284 -56.641,20.049c-37.372,32.027 -74.91,61.07 -113.199,91.008c-26.819,20.981 -34.077,22.632 -66.234,16.726c-28.863,-5.304 -58.769,-16.346 -89.008,-11.966c-22.315,3.235 -29.822,8.84 -50.302,-4.606c-21.397,-14.059 -44.42,-27.58 -64.607,-43.366c-21.439,-16.776 -41.918,-31.053 -60.979,-48.736c-19.646,-18.235 -46.465,-25.236 -70.489,-35.94c-20.521,-9.149 -38.331,-29.49 -60.479,-34.585c-23.941,-5.513 -52.512,1.797 -73.162,12.643c-40.204,21.123 -77.075,53.748 -122.413,55.792c-25.092,1.132 -45.884,12.409 -71.21,8.004c-15.516,-2.7 -27.245,-9.191 -41.267,-16.672c-29.739,-15.866 -61.367,-26.853 -87.665,-48.654c-11.921,-9.884 -17.889,-24.412 -30.707,-33.569c-11.298,-8.066 -27.461,-13.082 -40.257,-18.239c-25.218,-10.169 -51.457,-22.532 -77.163,-29.198c-27.286,-7.076 -56.804,-5.066 -84.461,-10.399c-35.265,-6.808 -59.031,-36.34 -88.954,-53.869c-26.764,-15.677 -62.092,-19.681 -90.284,-32.98c-33.313,-15.71 -63.46,-22.561 -98.004,-31.801c-24.287,-6.5 -46.802,-15.953 -72.845,-12.639c-30.49,3.874 -58.506,24.161 -89.363,31.438c-30.135,7.109 -58.43,1.801 -86.196,18.824c-16.655,10.211 -29.776,25.119 -47.795,32.951c-13.176,5.726 -29.442,7.966 -43.386,11.489c-32.412,8.192 -50.702,23.773 -77.508,43.312c-48.98,35.697 -92.149,72.878 -137.228,112.946c-31.14,27.681 -64.399,60.414 -108.411,64.226c-30.314,2.625 -30.961,-11.439 -50.46,-28.901c-17.835,-15.974 -37.305,-20.254 -51.778,-41.113c-14.473,-20.856 -25.117,-44.182 -41.651,-63.265c-22.344,-25.791 -54.86,-48.277 -84.461,-64.824c-33.255,-18.59 -61.259,-39.767 -91.344,-63.732c-21.263,-16.944 -46.222,-32.496 -61.988,-55.232c-45.105,-65.053 -105.07,-104.148 -170.958,-148.48c-5.886,-3.962 -12.05,-6.741 -18.311,-8.919l0,1323.69l3234.39,0l-0,-748.99Z" style="fill:#481126;fill-rule:nonzero;"/><path d="M3178.54,1549.6c-30.031,26.222 -49.3,63.908 -84.878,82.949c-35.62,19.076 -18.394,8.51 -47.716,1.267c-14.348,-3.544 -51.219,-6.742 -64.232,-13.316c-13.264,-6.72 -13.139,-23.346 -31.991,-33.323c-3.045,-1.605 -55.307,-13.529 -55.349,-13.516c-19.144,3.615 -38.831,21.503 -58.434,27.116c-14.932,4.267 -46.131,16.191 -57.559,15.406c-25.61,-1.76 -28.154,-17.633 -50.218,-26.327c-18.811,-7.414 -40.166,-1.667 -59.144,-7.815c-41.501,-13.429 -81.542,-43.241 -122.167,-62.262c-7.257,-3.398 -22.481,0.472 -25.651,-1.459c-5.38,-3.297 -17.101,-16.751 -21.188,-18.423c-25.526,-10.528 -29.489,-16.864 -55.974,-6.553c-14.765,5.743 -30.698,17.867 -44.254,23.61c-18.143,7.707 -36.037,5.395 -53.971,22.761c-11.554,11.21 -22.941,26.134 -33.034,35.371c-7.3,6.712 -42.711,35.952 -51.011,38.426c-28.404,8.468 -26.026,-7.561 -49.467,-20.358c-21.814,-11.895 -27.32,-8.514 -51.97,-12.539c-16.475,-2.699 -36.287,-8.409 -50.76,-16.391c-18.227,-10.06 -31.078,-33.06 -44.379,-39.601c-24.78,-12.196 -57.684,-9.918 -85.216,-23.923c-29.318,-14.908 -107.911,-80.371 -114.718,-11.243c-87.06,-1.183 -164.768,61.196 -251.791,50.442c-40.366,-4.99 -61.217,5.739 -97.871,8.576c-23.878,1.848 -31.916,-7.339 -59.452,0.665c-19.879,5.776 -33.205,10.612 -52.933,13.675c-35.85,5.563 -78.589,26.005 -110.447,0.146c-12.892,-10.465 -15.749,-31.479 -25.743,-39.086c-13.526,-10.29 -31.916,-10.373 -45.93,-18.737c-18.49,-11.029 -30.435,-33.047 -57.663,-36.236c-26.932,-3.155 -70.718,26.335 -96.199,49.887c-7.582,7.013 -5.059,20.358 -15.007,24.767c-6.048,2.679 -15.015,-2.115 -21.818,0.28c-17.276,6.085 -35.065,23.714 -54.009,30.719c-21.827,8.071 -38.143,20.208 -60.571,24.989c-15.945,3.398 -30.251,15.226 -45.108,16.647c-18.327,1.755 -25.81,-10.683 -38.014,-20.588c-12.438,-10.093 -20.4,-8.622 -32.713,-13.838c-11.165,-4.727 -20.888,-19.899 -33.054,-26.222c-10.736,-5.58 -24.872,-8.443 -35.82,-12.012c-60.879,-19.852 -100.232,42.977 -159.705,42.025c-25.013,-0.397 -49.947,-23.071 -70.393,-34.443c-9.043,-5.024 -27.62,-17.934 -38.539,-15.301c-7.358,1.772 -12.751,15.656 -20.501,19.451c-9.155,4.484 -14.982,0.681 -23.916,2.742c-21.805,5.032 -33.388,19.785 -52.983,28.24c-14.936,6.449 -34.356,5.262 -50.368,9.659c-41.209,11.326 -79.182,27.283 -122.029,26.205c-16.688,-0.422 -35.703,7.887 -51.753,4.744c-19.491,-3.816 -30.39,-24.086 -45.772,-33.712c-16.138,-10.097 -35.22,-9.353 -52.279,-18.954c-17.134,-9.642 -30.318,-25.432 -44.141,-38.438c-12.733,-11.983 -22.335,-17.357 -38.351,-23.075c-7.329,-2.612 -12.138,-5.095 -16.238,-7.887l0,808.66c0.125,0.03 0.246,0.055 0.371,0.084l3234.02,0l-0,-763.931Z" style="fill:#661b30;fill-rule:nonzero;"/><path d="M3178.54,1684.24c-255.511,-30.572 -517.905,-40.946 -771.122,-61.96c-344.269,-28.571 -690.389,-46.81 -1035.72,-27.622c-231.67,12.872 -466.698,38.819 -698.677,38.819c-239.662,13.319 -485.493,36.879 -728.875,36.403l0,643.646l3234.39,0l-0,-629.286Z" style="fill:#c43646;fill-rule:nonzero;"/><path d="M3178.54,1989.38c-460.929,-141.183 -935.332,-249.723 -1409.2,-338.052c-35.015,-6.529 -71.106,-13.483 -100.753,-33.256c-13.835,-9.229 -24.091,-19.807 -31.278,-31.208c-88.561,0.455 -177.11,2.883 -265.609,7.803c-231.67,12.872 -466.698,38.819 -698.677,38.819c-239.662,13.319 -485.493,36.879 -728.875,36.403l0,643.646l3234.39,0l-0,-324.155Z" style="fill:#d04944;fill-rule:nonzero;"/><path d="M3178.54,1935c-457.009,-37.703 -906.678,-81.395 -1367.72,-53.355c-131.901,8.024 -262.439,28.98 -393.965,25.933c-119.051,-2.754 -237.618,-25.001 -356.206,-24.859c-311.436,0.372 -622.821,-12.539 -934.277,-12.539c-60.428,0 -121.474,11.858 -182.224,23.142l0,211.235l3234.39,-0l-0,-169.557Z" style="fill:#e15d4c;fill-rule:nonzero;"/><path d="M1204.01,1752.75c-98.026,0 -191.917,3.202 -289.175,8.238c-25.339,1.312 -34.394,3.302 -38.94,24.742c-4.463,21.044 -14.327,31.004 -25.017,51.583c-10.619,20.455 -17.176,20.743 -38.239,35.568c-7.646,5.383 -12.288,13.307 -20.083,18.088c-6.745,4.138 -23.212,6.642 -27.333,10.717c-5.255,5.203 -8.321,8.396 -5.76,15.664c34.878,1.279 69.951,0.238 104.691,2.37c21.806,1.337 45.259,1.831 66.389,5.985c34.164,6.712 48.228,5.09 83.748,4.33c61.525,-1.313 136.218,2.294 195.287,12.43c49.722,8.53 102.805,8.822 153.148,13.905c60.3,6.081 127.639,-12.02 189.002,-16.037c10.406,-0.677 25.434,2.867 33.297,-3.611c13.714,-11.297 -0.43,-10.064 -8.555,-17.002c-26.36,-22.49 -23.829,-40.223 -33.301,-71.214c-5.91,-19.334 -17.443,-57.234 -33.15,-73.074c-15.308,-15.443 -57.805,-11.113 -83.419,-16.041c-40.917,-7.865 -74.993,-8.689 -116.928,-6.181c-37.826,2.261 -68.662,-0.46 -105.662,-0.46Z" style="fill:#e96b56;fill-rule:nonzero;"/><path d="M1585.03,1936.73c13.714,-11.297 -0.43,-10.064 -8.555,-17.002c-26.36,-22.49 -23.829,-40.223 -33.301,-71.214c-5.91,-19.334 -17.443,-57.234 -33.15,-73.074c-15.308,-15.443 -57.805,-11.113 -83.419,-16.041c-40.917,-7.865 -74.993,-8.689 -116.928,-6.185c-37.826,2.265 -68.662,-0.456 -105.662,-0.456c-7.349,0 -14.636,0.055 -21.939,0.088l2.473,4.033c100.482,36.55 -2.482,120.528 -8.55,180.712c11.591,1.417 22.852,3.038 33.584,4.882c49.722,8.53 102.805,8.822 153.148,13.9c60.3,6.086 127.639,-12.015 189.002,-16.032c10.406,-0.677 25.43,2.867 33.297,-3.611Z" style="fill:#bb253f;fill-rule:nonzero;"/><path d="M906.457,1876.45c65.02,-69.463 92.452,-101.026 206.365,-101.026c114.584,-0 256.85,12.204 366.42,-11.168c-17.534,-2.244 -37.88,-2.027 -52.641,-4.865c-40.917,-7.865 -74.993,-8.689 -116.928,-6.185c-37.826,2.265 -68.662,-0.456 -105.662,-0.456c-98.026,0 -191.917,3.202 -289.175,8.238c-25.339,1.312 -34.394,3.302 -38.94,24.742c-4.463,21.044 -14.327,31.004 -25.017,51.583c-10.619,20.455 -17.176,20.743 -38.239,35.568c-7.65,5.383 -12.288,13.307 -20.083,18.088c-6.745,4.138 -23.212,6.642 -27.333,10.717c-5.255,5.203 -8.321,8.392 -5.76,15.664c32.951,1.208 66.068,0.38 98.922,2.077c21.677,-17.202 38.994,-33.281 48.071,-42.977Z" style="fill:#e96b56;fill-rule:nonzero;"/><path d="M900.154,1772.29c-21.163,6.373 -0.254,19.326 19.85,22.899c28.158,5.007 63.982,0.23 92.156,-2.8c30.306,-3.256 62.126,2.951 91.89,5.768c42.36,4.008 79.778,1.383 121.716,-0.046c36.801,-1.258 72.629,-7.532 108.878,-8.355c18.811,-0.426 24.288,7.648 38.982,8.952c13.088,1.158 19.912,-4.539 31.144,-6.265c13.923,-2.14 20.813,2.654 33.43,3.193c6.169,0.264 59.937,-2.064 62.76,-4.016c28.859,-19.949 -107.476,-24.333 -119.689,-24.433c-66.463,-0.539 -128.189,3.544 -193.252,-3.616c-59.953,-6.595 -106.116,18.825 -165.435,9.86c-23.541,-3.557 -46.54,0.263 -70.064,1.283c-11.62,0.506 -41.417,-5.229 -50.356,-2.976c-0.709,0.176 -1.38,0.36 -2.01,0.552Z" style="fill:#481126;fill-rule:nonzero;"/><path d="M1326.29,1775.88c-7.274,-0.556 -14.565,-0.994 -21.856,-1.404c-38.03,-0.41 -75.99,9.245 -113.904,2.269c-23.54,-4.329 -45.079,1.66 -68.211,5.459c-19.628,3.226 -38.956,1.822 -58.714,1.626c-28.625,-0.293 -57.755,0.075 -86.163,-4.117c-25.814,1.801 -51.545,4.535 -77.104,8.894c5.405,2.888 12.583,5.316 19.666,6.574c28.158,5.007 63.982,0.23 92.156,-2.8c30.306,-3.256 62.126,2.951 91.89,5.768c42.36,4.008 79.778,1.383 121.716,-0.046c36.796,-1.258 72.629,-7.532 108.878,-8.355c18.811,-0.426 24.288,7.648 38.982,8.952c13.088,1.158 19.912,-4.539 31.144,-6.265c13.923,-2.14 20.813,2.654 33.43,3.193c2.674,0.113 14.286,-0.259 26.819,-0.877c-6.836,-1.317 -13.688,-2.521 -20.541,-3.733c-40.413,0.861 -78.393,-10.695 -118.188,-15.138Z" style="fill:#e15d4c;fill-rule:nonzero;"/><path d="M1699.47,1945.37c-0,0 11.733,-26.226 18.953,-27.129c7.219,-0.902 5.413,-11.756 13.534,-11.756c8.125,-0 24.367,35.266 25.268,38.885c0.905,3.616 -34.29,9.947 -57.755,0Z" style="fill:#bb253f;fill-rule:nonzero;"/><path d="M1728.66,1907.4c-4.4,2.562 -4.242,10.093 -10.235,10.845c-7.22,0.903 -18.953,27.129 -18.953,27.129c10.523,-8.789 32.896,-6.578 29.188,-37.974Z" style="fill:#e96b56;fill-rule:nonzero;"/><path d="M1665.04,1970.06c-0,0 10.827,-27.129 13.534,-30.744c2.707,-3.615 6.315,-10.85 12.634,-9.947c6.315,0.903 14.44,9.044 14.44,9.044c0,0 3.608,-4.522 8.121,-0.907c4.513,3.62 19.853,32.554 19.853,32.554c0,0 -43.319,13.567 -68.582,0Z" style="fill:#bb253f;fill-rule:nonzero;"/><path d="M1693.07,1976.06c-0.472,-1.592 -1.815,-3.557 -4.568,-6.002c-17.184,-15.255 6.094,-7.611 4.851,-17.37c-1.076,-8.442 4.784,-11.639 -7.633,-21.716c-3.09,2.161 -5.359,5.956 -7.145,8.342c-2.707,3.615 -13.534,30.744 -13.534,30.744c8.15,4.376 18.177,5.91 28.029,6.002Z" style="fill:#e96b56;fill-rule:nonzero;"/><path d="M448.309,2051.35c-3.024,-5.63 31.586,-29.842 41.513,-36.169c9.927,-6.332 34.289,-9.947 38.802,-0c4.513,9.947 0,28.031 0,28.031c0,0 12.634,0 15.341,8.138c2.707,8.137 -89.337,11.757 -95.656,-0Z" style="fill:#bb253f;fill-rule:nonzero;"/><path d="M606.233,2033.94c-0,0 13.534,-27.497 20.754,-24.934c7.22,2.557 24.367,24.934 24.367,24.934c-0,0 -31.587,5.191 -45.121,0Z" style="fill:#bb253f;fill-rule:nonzero;"/><path d="M517.796,1920.23c-5.993,-7.507 37.902,-47.926 55.949,-51.542c18.048,-3.619 90.242,9.041 90.242,9.041c0,-0 -29.78,36.173 -66.78,42.501c-36.996,6.332 -72.191,9.044 -79.411,-0Z" style="fill:#bb253f;fill-rule:nonzero;"/><path d="M651.354,1976.29c-7.858,-5.513 -3.608,-22.607 12.633,-29.837c16.246,-7.235 -1.806,-15.376 0,-25.324c1.807,-9.947 17.147,-56.46 22.561,-53.096c5.414,3.365 60.462,38.631 86.635,49.481c26.168,10.85 122.725,42.501 118.216,48.829c-4.513,6.332 -144.389,13.566 -177.777,13.566c-33.389,0 -53.242,2.713 -62.268,-3.619Z" style="fill:#bb253f;fill-rule:nonzero;"/><path d="M686.548,1868.04c-16.242,1.555 -85.729,53.096 -129.044,74.8c-43.316,21.704 -104.683,37.653 -104.683,37.653c0,0 159.701,-0.046 219.275,-0.046c59.573,0 14.452,-112.407 14.452,-112.407Z" style="fill:#e96b56;fill-rule:nonzero;"/><path d="M2383.56,2031.82c-5.547,-3.87 -2.544,-15.873 8.843,-20.951c11.428,-5.083 -1.251,-10.796 -0,-17.78c1.293,-6.984 12.054,-39.642 15.849,-37.281c3.796,2.362 42.46,27.125 60.812,34.744c18.394,7.62 86.172,29.838 83.002,34.285c-3.17,4.442 -101.354,9.52 -124.795,9.52c-23.44,0 -37.413,1.906 -43.711,-2.537Z" style="fill:#bb253f;fill-rule:nonzero;"/><path d="M2408.26,1955.81c-11.386,1.091 -60.187,37.281 -90.592,52.52c-30.407,15.238 -73.492,26.435 -73.492,26.435c-0,-0 112.115,-0.03 153.949,-0.03c41.834,0 10.135,-78.925 10.135,-78.925Z" style="fill:#e96b56;fill-rule:nonzero;"/><path d="M573.745,1868.69c-30.681,1.806 -149.799,65.104 -149.799,65.104c0,-0 102.872,12.664 171.459,-0c68.582,-12.66 -21.66,-65.104 -21.66,-65.104Z" style="fill:#e96b56;fill-rule:nonzero;"/><path d="M697.146,1980.83c-5.993,-7.506 37.902,-47.926 55.949,-51.541c18.048,-3.62 90.243,9.04 90.243,9.04c-0,-0 -29.781,36.173 -66.781,42.501c-36.996,6.332 -72.191,9.044 -79.411,-0Z" style="fill:#bb253f;fill-rule:nonzero;"/><path d="M830.704,2036.89c-7.858,-5.512 -3.608,-22.606 12.634,-29.837c16.245,-7.235 -1.806,-15.376 -0,-25.323c1.806,-9.947 17.146,-56.461 22.56,-53.096c5.414,3.364 60.462,38.631 86.635,49.48c26.168,10.85 122.725,42.501 118.216,48.829c-4.512,6.332 -144.389,13.567 -177.777,13.567c-33.389,-0 -53.242,2.712 -62.268,-3.62Z" style="fill:#bb253f;fill-rule:nonzero;"/><path d="M865.898,1928.64c-16.241,1.554 -85.729,53.096 -129.044,74.8c-43.315,21.704 -104.682,37.652 -104.682,37.652c-0,0 159.7,-0.046 219.274,-0.046c59.574,0 14.452,-112.406 14.452,-112.406Z" style="fill:#e96b56;fill-rule:nonzero;"/><path d="M753.095,1929.29c-30.681,1.805 -149.799,65.103 -149.799,65.103c0,0 102.872,12.664 171.459,0c68.583,-12.659 -21.66,-65.103 -21.66,-65.103Z" style="fill:#e96b56;fill-rule:nonzero;"/><path d="M513.855,2009.1c-8.559,-0.029 -18.507,2.549 -24.033,6.077c-9.927,6.327 -44.537,30.539 -41.513,36.169c22.381,-0 65.904,-22.431 65.546,-42.246Z" style="fill:#e96b56;fill-rule:nonzero;"/><path d="M61.93,1933.6c-6.707,-12.489 70.047,-66.182 92.065,-80.221c22.014,-14.035 76.049,-22.059 86.059,-0c10.006,22.063 -0,62.169 -0,62.169c-0,0 28.016,0 34.022,18.052c6.002,18.046 -198.136,26.071 -212.146,-0Z" style="fill:#bb253f;fill-rule:nonzero;"/><path d="M207.3,1839.9c-18.987,-0.062 -41.047,5.659 -53.305,13.475c-22.018,14.039 -98.772,67.732 -92.065,80.221c49.634,-0 146.162,-49.744 145.37,-93.696Z" style="fill:#e96b56;fill-rule:nonzero;"/><path d="M626.987,2009c-7.22,-2.563 -20.754,24.934 -20.754,24.934c1.243,0.238 2.627,0.222 4.079,-0.012c11.049,-1.764 26.247,-15.999 16.675,-24.922Z" style="fill:#e96b56;fill-rule:nonzero;"/><path d="M2102.15,1885.36c-3.003,-5.629 31.574,-29.841 41.501,-36.169c9.927,-6.332 34.285,-9.947 38.832,0c4.504,9.947 -0,28.032 -0,28.032c-0,-0 12.638,-0 15.307,8.137c2.711,8.138 -89.3,11.757 -95.64,0Z" style="fill:#bb253f;fill-rule:nonzero;"/><path d="M2260.06,1867.95c-0,-0 13.555,-27.497 20.771,-24.935c7.216,2.558 24.359,24.935 24.359,24.935c-0,-0 -31.575,5.191 -45.13,-0Z" style="fill:#bb253f;fill-rule:nonzero;"/><path d="M2167.72,1843.11c-8.592,-0.029 -18.518,2.55 -24.066,6.077c-9.927,6.328 -44.504,30.54 -41.501,36.169c22.398,0 65.901,-22.427 65.567,-42.246Z" style="fill:#e96b56;fill-rule:nonzero;"/><path d="M2280.83,1843.01c-7.216,-2.562 -20.771,24.935 -20.771,24.935c1.251,0.238 2.628,0.221 4.087,-0.009c11.053,-1.768 26.236,-16.003 16.684,-24.926Z" style="fill:#e96b56;fill-rule:nonzero;"/><path d="M2159.46,1901.53c-0,-0 11.721,-26.222 18.936,-27.129c7.216,-0.903 5.422,-11.753 13.556,-11.753c8.091,0 24.358,35.266 25.234,38.882c0.918,3.619 -34.285,9.947 -57.726,-0Z" style="fill:#bb253f;fill-rule:nonzero;"/><path d="M2188.61,1863.56c-4.379,2.562 -4.213,10.094 -10.219,10.842c-7.215,0.907 -18.936,27.129 -18.936,27.129c10.511,-8.786 32.867,-6.575 29.155,-37.971Z" style="fill:#e96b56;fill-rule:nonzero;"/><path d="M206.465,2077.62c-3.028,-5.63 31.583,-29.842 41.51,-36.169c9.926,-6.332 34.293,-9.947 38.806,-0c4.513,9.947 -0,28.031 -0,28.031c-0,0 12.634,0 15.341,8.138c2.706,8.137 -89.342,11.757 -95.657,-0Z" style="fill:#bb253f;fill-rule:nonzero;"/><path d="M364.389,2060.2c0,0 13.535,-27.497 20.755,-24.935c7.22,2.558 24.363,24.935 24.363,24.935c-0,0 -31.583,5.191 -45.118,0Z" style="fill:#bb253f;fill-rule:nonzero;"/><path d="M272.012,2035.37c-8.563,-0.029 -18.511,2.549 -24.037,6.077c-9.927,6.327 -44.534,30.539 -41.51,36.169c22.382,-0 65.905,-22.427 65.547,-42.246Z" style="fill:#e96b56;fill-rule:nonzero;"/><path d="M385.144,2035.27c-7.22,-2.562 -20.755,24.935 -20.755,24.935c1.243,0.238 2.624,0.222 4.075,-0.008c11.049,-1.768 26.248,-16.003 16.68,-24.927Z" style="fill:#e96b56;fill-rule:nonzero;"/><path d="M263.753,2093.79c0,0 11.733,-26.222 18.953,-27.129c7.216,-0.903 5.414,-11.752 13.535,-11.752c8.12,-0 24.366,35.266 25.267,38.881c0.901,3.62 -34.293,9.947 -57.755,0Z" style="fill:#bb253f;fill-rule:nonzero;"/><path d="M292.941,2055.82c-4.4,2.562 -4.242,10.093 -10.235,10.841c-7.22,0.907 -18.953,27.129 -18.953,27.129c10.523,-8.785 32.896,-6.574 29.188,-37.97Z" style="fill:#e96b56;fill-rule:nonzero;"/><path d="M3178.54,1862.69c-92.011,-2.102 -183.438,11.284 -277.617,11.284c-69.196,0 -137.474,9.939 -204.376,16.359c-31.657,3.034 -65.859,3.962 -94.722,9.195c-14.39,2.612 -47.173,7.493 -55.598,16.63c-4.922,5.383 1.668,15.021 -1.168,21.006c-4.547,9.579 -19.311,17.783 -25.318,27.225c-5.923,9.257 -4.171,20.96 -9.468,29.67c-6.006,9.83 -19.019,14.975 -28.988,23.56c-20.104,17.365 -34.535,39.17 -56.641,54.993c-11.47,8.192 -44.963,20.688 -43.461,31.944l797.357,-0l-0,-241.866Z" style="fill:#e96b56;fill-rule:nonzero;"/><path d="M3178.54,1897.18c-19.186,13.558 -42.502,17.261 -75.077,24.554c7.883,40.14 -96.682,77.997 -147.4,94.498c-41.71,13.566 -79.874,29.9 -119.706,43.98c-35.537,12.568 -79.248,29.875 -122.584,44.349l464.767,-0l-0,-207.381Z" style="fill:#e15d4c;fill-rule:nonzero;"/><path d="M3178.54,1872.07c-3.545,0.167 -7.09,0.271 -10.636,0.213c-31.74,-0.535 -38.623,-2.391 -65.817,3.54c-30.448,6.637 -64.483,7.164 -95.389,10.975c-63.19,7.795 -132.803,6.366 -197.202,12.543c-30.531,2.921 -62.439,2.207 -92.511,5.446c-34.869,3.757 -75.202,4.146 -109.321,9.592c-29.071,4.635 -54.43,18.653 -12.429,25.494c25.86,4.217 58.185,0.665 84.211,3.022c9.927,0.894 13.639,5.63 26.444,5.759c15.057,0.155 26.611,-7 44.504,-5.228c25.526,2.537 55.515,18.736 78.789,19.769c12.679,0.564 22.815,-5.655 36.162,-5.969c18.811,-0.447 28.404,5.003 46.923,8.012c22.189,3.607 44.629,-1.011 70.864,-0.259c14.682,0.422 27.737,0.916 41.96,2.178c20.27,1.805 21.438,-0.401 37.663,-1.91c32.95,-3.064 70.489,3.314 101.27,-7.958c5.256,-1.922 9.927,-4.213 14.515,-6.62l-0,-78.599Z" style="fill:#481126;fill-rule:nonzero;"/><path d="M3178.54,1930.45c-13.931,-4.652 -28.237,-8.455 -41.167,-10.666c-25.609,-4.376 -31.073,2.875 -53.847,5.195c-22.898,2.323 -45.004,-4.757 -68.486,-2.006c-28.071,3.285 -46.339,6.223 -76.537,3.636c-37.664,-3.227 -89.258,-1.363 -129.883,3.627c-23.816,2.926 -104.44,-3.381 -103.814,14.374c-4.421,0.167 -8.634,0.76 -12.597,1.646c3.629,1.233 7.633,2.341 13.681,2.399c15.057,0.155 26.611,-7 44.504,-5.228c25.526,2.537 55.515,18.736 78.789,19.769c12.679,0.564 22.815,-5.655 36.162,-5.969c18.811,-0.447 28.404,5.003 46.923,8.012c22.189,3.607 44.629,-1.011 70.864,-0.259c14.682,0.422 27.737,0.916 41.96,2.178c20.27,1.805 21.438,-0.401 37.663,-1.91c32.95,-3.064 70.489,3.314 101.27,-7.958c5.256,-1.922 9.927,-4.213 14.515,-6.612l-0,-20.228Z" style="fill:#bb253f;fill-rule:nonzero;"/><path d="M271.361,2104.56c-6.482,-6.947 -12.696,-14.102 -19.996,-20.404c-6.769,-5.852 -15.645,-9.354 -19.728,-16.054c-3.62,-5.935 -2.419,-13.909 -6.452,-20.22c-4.113,-6.432 -14.157,-12.024 -17.264,-18.553c-1.939,-4.079 2.561,-10.645 -0.809,-14.319c-5.723,-6.223 -28.075,-9.55 -37.881,-11.33c-19.665,-3.569 -42.964,-4.2 -64.536,-6.269c-45.605,-4.372 -92.124,-11.147 -139.31,-11.147c-7.103,0 -14.172,-0.142 -21.234,-0.343l0,118.639l327.21,-0Z" style="fill:#c43646;fill-rule:nonzero;"/><path d="M165.256,2013.8c-23.252,-3.712 -50.735,-3.979 -74.501,-6.537c-20.483,-2.207 -42.251,-1.722 -63.043,-3.712c-27.124,-2.599 -55.599,-3.226 -83.561,-4.576l0,50.404c4.559,0.013 9.055,-0.196 13.522,-0.919c12.609,-2.052 19.166,-5.764 31.979,-5.463c9.08,0.218 15.983,4.451 24.625,4.071c15.875,-0.706 36.304,-11.744 53.713,-13.475c12.18,-1.207 20.046,3.67 30.311,3.566c8.725,-0.088 11.27,-3.315 18.026,-3.929c17.752,-1.605 39.762,0.819 57.401,-2.056c28.633,-4.661 11.336,-14.215 -8.472,-17.374Z" style="fill:#481126;fill-rule:nonzero;"/><path d="M99.06,2034.4c0.421,-12.099 -54.527,-7.799 -70.756,-9.792c-26.185,-3.219 -58.956,-4.489 -84.153,-2.763l0,27.534c4.559,0.013 9.055,-0.196 13.522,-0.919c12.609,-2.052 19.166,-5.764 31.979,-5.463c9.08,0.218 15.983,4.451 24.625,4.071c15.875,-0.706 36.304,-11.744 53.713,-13.475c12.18,-1.207 20.046,3.67 30.311,3.566c4.137,-0.042 6.877,-0.795 9.342,-1.635c-2.719,-0.606 -5.584,-1.011 -8.583,-1.124Z" style="fill:#e15d4c;fill-rule:nonzero;"/><path d="M0,401.545c23.316,2.085 46.669,3.941 70.105,5.37c308.595,18.808 616.76,9.404 924.12,-24.909c359.477,-40.127 727.737,-49.197 1088.28,-27.865c265.272,15.698 523.202,60.862 784.511,107.622c86.005,15.388 173.469,28.901 261.184,40.775l0,-331.353c-89.55,-13.065 -179.308,-21.562 -264.938,-28.767c-224.98,-18.929 -440.534,-9.07 -665.138,1.396c-309.067,14.394 -610.421,94.957 -916.25,130.842c-396.568,46.534 -870.979,53.66 -1281.87,-70.888l0,197.777Z" style="fill:#290f1f;fill-rule:nonzero;"/><path d="M1989.62,581.396c-314.184,-28.776 -615.109,-103.104 -933.197,-100.462c-352.068,2.925 -704.508,8.748 -1056.42,6.687l0,70.491c1.764,-0.188 3.55,-0.401 5.31,-0.577c187.796,-18.887 388.856,27.025 575.718,48.336c202.503,23.091 404.876,48.039 605.957,81.57c317.1,52.875 661.76,112.219 982.151,56.745c189.026,-32.725 376.635,-64.819 569.207,-62.667c73.367,0.819 144.147,7.226 216.43,17.232c55.765,7.724 119.747,-2.002 173.427,14.733l0,-139.394c-377.845,-59.01 -758.109,42.15 -1138.58,7.306Z" style="fill:#290f1f;fill-rule:nonzero;"/><path d="M2448.67,155.115l3.754,16.818c0.167,0.69 0.71,1.233 1.377,1.384l16.809,3.757c1.877,0.422 1.877,3.139 -0,3.565l-16.809,3.753c-0.667,0.155 -1.21,0.694 -1.377,1.384l-3.754,16.818c-0.417,1.906 -3.128,1.906 -3.545,-0l-3.754,-16.818c-0.166,-0.69 -0.667,-1.229 -1.376,-1.384l-16.767,-3.753c-1.919,-0.426 -1.919,-3.143 -0,-3.565l16.767,-3.757c0.709,-0.151 1.21,-0.694 1.376,-1.384l3.754,-16.818c0.417,-1.902 3.128,-1.902 3.545,0Z" style="fill:#fef7fa;fill-rule:nonzero;"/><path d="M3001.95,65.081l3.754,16.814c0.167,0.694 0.667,1.233 1.376,1.388l16.767,3.753c1.919,0.422 1.919,3.139 0,3.565l-16.767,3.753c-0.709,0.155 -1.209,0.694 -1.376,1.383l-3.754,16.819c-0.417,1.905 -3.128,1.905 -3.545,-0l-3.754,-16.819c-0.167,-0.689 -0.709,-1.228 -1.377,-1.383l-16.809,-3.753c-1.876,-0.426 -1.876,-3.143 0,-3.565l16.809,-3.753c0.668,-0.155 1.21,-0.694 1.377,-1.388l3.754,-16.814c0.417,-1.906 3.128,-1.906 3.545,-0Z" style="fill:#fef7fa;fill-rule:nonzero;"/><path d="M735.711,94.546c-0,5.003 -4.046,9.057 -9.038,9.057c-4.993,0 -9.039,-4.054 -9.039,-9.057c0,-4.998 4.046,-9.057 9.039,-9.057c4.992,0 9.038,4.059 9.038,9.057Z" style="fill:#fef7fa;fill-rule:nonzero;"/><path d="M3043.36,345.895c0,5.003 -4.046,9.057 -9.051,9.057c-4.963,0 -9.009,-4.054 -9.009,-9.057c-0,-4.998 4.046,-9.052 9.009,-9.052c5.005,-0 9.051,4.054 9.051,9.052Z" style="fill:#fef7fa;fill-rule:nonzero;"/><path d="M2983.55,353.527l2.628,11.744c0.083,0.481 0.459,0.857 0.959,0.966l11.72,2.62c1.335,0.297 1.335,2.194 0,2.491l-11.72,2.621c-0.5,0.108 -0.876,0.485 -0.959,0.965l-2.628,11.744c-0.292,1.334 -2.169,1.334 -2.461,0l-2.628,-11.744c-0.125,-0.48 -0.5,-0.857 -0.959,-0.965l-11.72,-2.621c-1.335,-0.297 -1.335,-2.194 0,-2.491l11.72,-2.62c0.459,-0.109 0.834,-0.485 0.959,-0.966l2.628,-11.744c0.292,-1.333 2.169,-1.333 2.461,0Z" style="fill:#fef7fa;fill-rule:nonzero;"/><path d="M2988.81,278.426l2.586,11.744c0.125,0.481 0.501,0.861 0.96,0.966l11.72,2.625c1.335,0.296 1.335,2.19 -0,2.486l-11.72,2.621c-0.459,0.109 -0.835,0.485 -0.96,0.97l-2.586,11.744c-0.292,1.329 -2.21,1.329 -2.502,-0l-2.628,-11.744c-0.083,-0.485 -0.459,-0.861 -0.959,-0.97l-11.72,-2.621c-1.335,-0.296 -1.335,-2.19 -0,-2.486l11.72,-2.625c0.5,-0.105 0.876,-0.485 0.959,-0.966l2.628,-11.744c0.292,-1.329 2.21,-1.329 2.502,0Z" style="fill:#fef7fa;fill-rule:nonzero;"/><path d="M137.028,280.482l3.745,16.819c0.155,0.689 0.693,1.228 1.381,1.383l16.784,3.753c1.902,0.426 1.902,3.143 -0,3.565l-16.784,3.753c-0.688,0.155 -1.226,0.694 -1.381,1.388l-3.745,16.814c-0.426,1.906 -3.133,1.906 -3.558,-0l-3.746,-16.814c-0.154,-0.694 -0.692,-1.233 -1.38,-1.388l-16.784,-3.753c-1.902,-0.422 -1.902,-3.139 -0,-3.565l16.784,-3.753c0.688,-0.155 1.226,-0.694 1.38,-1.383l3.746,-16.819c0.425,-1.905 3.132,-1.905 3.558,0Z" style="fill:#fef7fa;fill-rule:nonzero;"/><path d="M277.48,155.892l3.745,16.819c0.154,0.689 0.693,1.228 1.381,1.383l16.784,3.753c1.902,0.427 1.902,3.143 -0,3.565l-16.784,3.753c-0.688,0.155 -1.227,0.694 -1.381,1.388l-3.745,16.814c-0.426,1.906 -3.133,1.906 -3.558,0l-3.746,-16.814c-0.154,-0.694 -0.692,-1.233 -1.384,-1.388l-16.78,-3.753c-1.902,-0.422 -1.902,-3.138 0,-3.565l16.78,-3.753c0.692,-0.155 1.23,-0.694 1.384,-1.383l3.746,-16.819c0.425,-1.905 3.132,-1.905 3.558,0Z" style="fill:#fef7fa;fill-rule:nonzero;"/><path d="M318.889,436.711c-0,4.999 -4.046,9.053 -9.039,9.053c-4.988,-0 -9.034,-4.054 -9.034,-9.053c0,-5.003 4.046,-9.057 9.034,-9.057c4.993,0 9.039,4.054 9.039,9.057Z" style="fill:#fef7fa;fill-rule:nonzero;"/><path d="M259.09,444.338l2.615,11.745c0.109,0.48 0.484,0.856 0.964,0.965l11.72,2.621c1.326,0.296 1.326,2.194 0,2.491l-11.72,2.62c-0.48,0.109 -0.855,0.485 -0.964,0.966l-2.615,11.744c-0.296,1.333 -2.19,1.333 -2.486,0l-2.615,-11.744c-0.108,-0.481 -0.484,-0.857 -0.968,-0.966l-11.716,-2.62c-1.33,-0.297 -1.33,-2.195 0,-2.491l11.716,-2.621c0.484,-0.109 0.86,-0.485 0.968,-0.965l2.615,-11.745c0.296,-1.333 2.19,-1.333 2.486,0Z" style="fill:#fef7fa;fill-rule:nonzero;"/><path d="M264.324,369.242l2.616,11.744c0.108,0.481 0.484,0.857 0.963,0.966l11.721,2.62c1.326,0.297 1.326,2.194 -0,2.491l-11.721,2.621c-0.479,0.108 -0.855,0.484 -0.963,0.965l-2.616,11.744c-0.296,1.334 -2.189,1.334 -2.485,0l-2.615,-11.744c-0.109,-0.481 -0.484,-0.857 -0.968,-0.965l-11.716,-2.621c-1.331,-0.297 -1.331,-2.194 -0,-2.491l11.716,-2.62c0.484,-0.109 0.859,-0.485 0.968,-0.966l2.615,-11.744c0.296,-1.334 2.189,-1.334 2.485,-0Z" style="fill:#fef7fa;fill-rule:nonzero;"/><path d="M258.815,636.352l2.615,11.744c0.108,0.485 0.484,0.861 0.968,0.965l11.72,2.625c1.326,0.297 1.326,2.19 -0,2.487l-11.72,2.624c-0.484,0.105 -0.86,0.485 -0.968,0.966l-2.615,11.744c-0.296,1.329 -2.19,1.329 -2.486,0l-2.615,-11.744c-0.109,-0.481 -0.484,-0.861 -0.964,-0.966l-11.72,-2.624c-1.327,-0.297 -1.327,-2.19 0,-2.487l11.72,-2.625c0.48,-0.104 0.855,-0.48 0.964,-0.965l2.615,-11.744c0.296,-1.33 2.19,-1.33 2.486,-0Z" style="fill:#fef7fa;fill-rule:nonzero;"/><path d="M931.048,72.5l2.615,11.744c0.109,0.481 0.484,0.857 0.964,0.965l11.72,2.621c1.331,0.297 1.331,2.194 0,2.491l-11.72,2.62c-0.48,0.109 -0.855,0.485 -0.964,0.966l-2.615,11.744c-0.296,1.333 -2.189,1.333 -2.486,0l-2.615,-11.744c-0.108,-0.481 -0.484,-0.857 -0.963,-0.966l-11.721,-2.62c-1.326,-0.297 -1.326,-2.194 0,-2.491l11.721,-2.621c0.479,-0.108 0.855,-0.484 0.963,-0.965l2.615,-11.744c0.297,-1.334 2.19,-1.334 2.486,-0Z" style="fill:#fef7fa;fill-rule:nonzero;"/><path d="M1906.03,68.947l2.628,11.74c0.083,0.485 0.458,0.861 0.959,0.97l11.721,2.62c1.293,0.297 1.293,2.195 -0,2.491l-11.721,2.621c-0.501,0.108 -0.876,0.485 -0.959,0.965l-2.628,11.745c-0.292,1.329 -2.21,1.329 -2.502,-0l-2.586,-11.745c-0.126,-0.48 -0.501,-0.857 -1.001,-0.965l-11.721,-2.621c-1.293,-0.296 -1.293,-2.194 0,-2.491l11.721,-2.62c0.5,-0.109 0.875,-0.485 1.001,-0.97l2.586,-11.74c0.292,-1.333 2.21,-1.333 2.502,0Z" style="fill:#fef7fa;fill-rule:nonzero;"/><path d="M584.406,278.426l2.62,11.744c0.104,0.481 0.479,0.861 0.963,0.966l11.72,2.625c1.327,0.296 1.327,2.19 0,2.486l-11.72,2.621c-0.484,0.109 -0.859,0.485 -0.963,0.97l-2.62,11.744c-0.296,1.329 -2.185,1.329 -2.482,-0l-2.619,-11.744c-0.104,-0.485 -0.48,-0.861 -0.963,-0.97l-11.721,-2.621c-1.326,-0.296 -1.326,-2.19 0,-2.486l11.721,-2.625c0.483,-0.105 0.859,-0.485 0.963,-0.966l2.619,-11.744c0.297,-1.329 2.186,-1.329 2.482,0Z" style="fill:#fef7fa;fill-rule:nonzero;"/><path d="M533.408,188.271l5.56,24.955c0.225,1.024 1.026,1.827 2.048,2.057l24.905,5.567c2.823,0.631 2.823,4.66 -0,5.291l-24.905,5.571c-1.022,0.23 -1.823,1.028 -2.048,2.056l-5.56,24.956c-0.63,2.825 -4.651,2.825 -5.28,0l-5.56,-24.956c-0.23,-1.028 -1.026,-1.826 -2.048,-2.056l-24.905,-5.571c-2.823,-0.631 -2.823,-4.66 0,-5.291l24.905,-5.567c1.022,-0.23 1.818,-1.033 2.048,-2.057l5.56,-24.955c0.629,-2.825 4.65,-2.825 5.28,-0Z" style="fill:#fef7fa;fill-rule:nonzero;"/><path d="M3099.71,153.117c-0,5.003 -4.046,9.057 -9.051,9.057c-5.005,0 -9.051,-4.054 -9.051,-9.057c-0,-4.998 4.046,-9.057 9.051,-9.057c5.005,0 9.051,4.059 9.051,9.057Z" style="fill:#fef7fa;fill-rule:nonzero;"/><path d="M2506.98,297.033l3.712,16.818c0.167,0.69 0.709,1.229 1.419,1.384l16.767,3.753c1.918,0.426 1.918,3.139 -0,3.565l-16.767,3.753c-0.71,0.155 -1.252,0.694 -1.419,1.388l-3.712,16.814c-0.459,1.905 -3.128,1.905 -3.587,-0l-3.712,-16.814c-0.167,-0.694 -0.709,-1.233 -1.418,-1.388l-16.767,-3.753c-1.919,-0.426 -1.919,-3.139 -0,-3.565l16.767,-3.753c0.709,-0.155 1.251,-0.694 1.418,-1.384l3.712,-16.818c0.459,-1.906 3.128,-1.906 3.587,0Z" style="fill:#fef7fa;fill-rule:nonzero;"/><path d="M2647.42,172.443l3.754,16.818c0.167,0.69 0.668,1.229 1.377,1.384l16.767,3.753c1.918,0.426 1.918,3.139 -0,3.565l-16.767,3.753c-0.709,0.155 -1.21,0.694 -1.377,1.388l-3.754,16.814c-0.417,1.906 -3.128,1.906 -3.545,-0l-3.754,-16.814c-0.167,-0.694 -0.708,-1.233 -1.376,-1.388l-16.809,-3.753c-1.877,-0.426 -1.877,-3.139 0,-3.565l16.809,-3.753c0.668,-0.155 1.209,-0.694 1.376,-1.384l3.754,-16.818c0.417,-1.906 3.128,-1.906 3.545,0Z" style="fill:#fef7fa;fill-rule:nonzero;"/><path d="M2688.83,453.257c0,5.003 -4.046,9.057 -9.051,9.057c-4.963,0 -9.009,-4.054 -9.009,-9.057c-0,-4.998 4.046,-9.052 9.009,-9.052c5.005,-0 9.051,4.054 9.051,9.052Z" style="fill:#fef7fa;fill-rule:nonzero;"/><path d="M2629.02,460.889l2.628,11.744c0.084,0.481 0.459,0.857 0.96,0.966l11.72,2.62c1.335,0.297 1.335,2.195 -0,2.491l-11.72,2.621c-0.501,0.109 -0.876,0.485 -0.96,0.965l-2.628,11.745c-0.291,1.333 -2.168,1.333 -2.46,-0l-2.628,-11.745c-0.125,-0.48 -0.5,-0.856 -0.959,-0.965l-11.72,-2.621c-1.335,-0.296 -1.335,-2.194 -0,-2.491l11.72,-2.62c0.459,-0.109 0.834,-0.485 0.959,-0.966l2.628,-11.744c0.292,-1.333 2.169,-1.333 2.46,0Z" style="fill:#fef7fa;fill-rule:nonzero;"/><path d="M435.671,98.542l2.615,11.744c0.108,0.481 0.484,0.861 0.967,0.966l11.721,2.624c1.326,0.297 1.326,2.19 -0,2.487l-11.721,2.621c-0.483,0.108 -0.859,0.484 -0.967,0.969l-2.615,11.745c-0.296,1.329 -2.186,1.329 -2.482,-0l-2.619,-11.745c-0.105,-0.485 -0.484,-0.861 -0.964,-0.969l-11.72,-2.621c-1.327,-0.297 -1.327,-2.19 -0,-2.487l11.72,-2.624c0.48,-0.105 0.859,-0.485 0.964,-0.966l2.619,-11.744c0.296,-1.329 2.186,-1.329 2.482,-0Z" style="fill:#fef7fa;fill-rule:nonzero;"/><path d="M2845.16,257.362l2.627,11.744c0.084,0.481 0.459,0.861 0.959,0.965l11.721,2.625c1.335,0.297 1.335,2.19 0,2.487l-11.721,2.62c-0.5,0.109 -0.875,0.485 -0.959,0.97l-2.627,11.744c-0.293,1.329 -2.169,1.329 -2.461,0l-2.628,-11.744c-0.125,-0.485 -0.5,-0.861 -0.96,-0.97l-11.72,-2.62c-1.334,-0.297 -1.334,-2.19 0,-2.487l11.72,-2.625c0.46,-0.104 0.835,-0.484 0.96,-0.965l2.628,-11.744c0.292,-1.33 2.168,-1.33 2.461,-0Z" style="fill:#fef7fa;fill-rule:nonzero;"/><path d="M115.397,646.073l5.56,24.956c0.229,1.028 1.026,1.826 2.048,2.056l24.905,5.571c2.823,0.631 2.823,4.66 -0,5.291l-24.905,5.567c-1.022,0.23 -1.819,1.033 -2.048,2.057l-5.56,24.955c-0.63,2.826 -4.65,2.826 -5.28,0l-5.56,-24.955c-0.225,-1.024 -1.026,-1.827 -2.048,-2.057l-24.905,-5.567c-2.819,-0.631 -2.819,-4.66 0,-5.291l24.905,-5.571c1.022,-0.23 1.823,-1.028 2.048,-2.056l5.56,-24.956c0.63,-2.825 4.65,-2.825 5.28,0Z" style="fill:#fef7fa;fill-rule:nonzero;"/><path d="M529.245,643.193c0,4.326 -3.499,7.837 -7.82,7.837c-4.321,-0 -7.821,-3.511 -7.821,-7.837c0,-4.33 3.5,-7.836 7.821,-7.836c4.321,-0 7.82,3.506 7.82,7.836Z" style="fill:#fef7fa;fill-rule:nonzero;"/><path d="M2994.77,747.316c-0,5.438 -4.422,9.851 -9.843,9.851c-5.423,0 -9.844,-4.413 -9.844,-9.851c0,-5.441 4.421,-9.855 9.844,-9.855c5.421,0 9.843,4.414 9.843,9.855Z" style="fill:#fef7fa;fill-rule:nonzero;"/><path d="M2311.66,204.216c0,4.998 -4.045,9.052 -9.009,9.052c-5.005,0 -9.051,-4.054 -9.051,-9.052c0,-5.003 4.046,-9.057 9.051,-9.057c4.964,-0 9.009,4.054 9.009,9.057Z" style="fill:#69352f;fill-rule:nonzero;"/><path d="M1151.87,55.598c0,4.998 -4.046,9.053 -9.038,9.053c-4.993,-0 -9.039,-4.055 -9.039,-9.053c0,-5.003 4.046,-9.057 9.039,-9.057c4.992,-0 9.038,4.054 9.038,9.057Z" style="fill:#69352f;fill-rule:nonzero;"/><path d="M2274.12,222.492c-0,2.851 -2.294,5.158 -5.13,5.158c-2.837,-0 -5.13,-2.307 -5.13,-5.158c-0,-2.85 2.293,-5.161 5.13,-5.161c2.836,-0 5.13,2.311 5.13,5.161Z" style="fill:#69352f;fill-rule:nonzero;"/><path d="M1900.99,166.174c0,2.884 -2.335,5.22 -5.213,5.22c-2.878,0 -5.214,-2.336 -5.214,-5.22c0,-2.884 2.336,-5.224 5.214,-5.224c2.878,-0 5.213,2.34 5.213,5.224Z" style="fill:#69352f;fill-rule:nonzero;"/><path d="M899.858,379.373c-0,2.884 -2.336,5.224 -5.214,5.224c-2.878,0 -5.209,-2.34 -5.209,-5.224c-0,-2.884 2.331,-5.22 5.209,-5.22c2.878,-0 5.214,2.336 5.214,5.22Z" style="fill:#69352f;fill-rule:nonzero;"/><path d="M1639.46,273.812c0,3.991 -3.232,7.226 -7.215,7.226c-3.984,0 -7.212,-3.235 -7.212,-7.226c0,-3.991 3.228,-7.23 7.212,-7.23c3.983,-0 7.215,3.239 7.215,7.23Z" style="fill:#69352f;fill-rule:nonzero;"/><path d="M116.678,88.143c-0,5.772 -4.668,10.449 -10.428,10.449c-5.76,-0 -10.427,-4.677 -10.427,-10.449c0,-5.772 4.667,-10.448 10.427,-10.448c5.76,-0 10.428,4.676 10.428,10.448Z" style="fill:#69352f;fill-rule:nonzero;"/><path d="M2704.85,50.022c0,5.772 -4.671,10.449 -10.427,10.449c-5.756,0 -10.427,-4.677 -10.427,-10.449c-0,-5.767 4.671,-10.448 10.427,-10.448c5.756,-0 10.427,4.681 10.427,10.448Z" style="fill:#69352f;fill-rule:nonzero;"/><path d="M441.134,641.417c0,7.807 -6.314,14.135 -14.105,14.135c-7.792,-0 -14.107,-6.328 -14.107,-14.135c0,-7.807 6.315,-14.135 14.107,-14.135c7.791,0 14.105,6.328 14.105,14.135Z" style="fill:#69352f;fill-rule:nonzero;"/><path d="M2470.78,460.103c-0,7.808 -6.299,14.135 -14.098,14.135c-7.8,0 -14.098,-6.327 -14.098,-14.135c-0,-7.807 6.298,-14.135 14.098,-14.135c7.799,0 14.098,6.328 14.098,14.135Z" style="fill:#69352f;fill-rule:nonzero;"/><path d="M203.391,754.263c0,7.807 -6.314,14.135 -14.106,14.135c-7.791,-0 -14.106,-6.328 -14.106,-14.135c0,-7.808 6.315,-14.135 14.106,-14.135c7.792,-0 14.106,6.327 14.106,14.135Z" style="fill:#69352f;fill-rule:nonzero;"/><path d="M737.271,231.829c-0,7.808 -6.315,14.135 -14.106,14.135c-7.792,0 -14.106,-6.327 -14.106,-14.135c-0,-7.803 6.314,-14.131 14.106,-14.131c7.791,0 14.106,6.328 14.106,14.131Z" style="fill:#69352f;fill-rule:nonzero;"/><path d="M2905.93,755.479c-0,8.559 -6.924,15.502 -15.474,15.502c-8.551,-0 -15.474,-6.943 -15.474,-15.502c-0,-8.564 6.923,-15.506 15.474,-15.506c8.55,0 15.474,6.942 15.474,15.506Z" style="fill:#69352f;fill-rule:nonzero;"/><path d="M435.341,861.052c0,4.602 -3.724,8.33 -8.312,8.33c-4.593,-0 -8.313,-3.728 -8.313,-8.33c-0,-4.597 3.72,-8.325 8.313,-8.325c4.588,-0 8.312,3.728 8.312,8.325Z" style="fill:#69352f;fill-rule:nonzero;"/><path d="M2761.16,73.009c-0,4.602 -3.712,8.33 -8.3,8.33c-4.588,0 -8.342,-3.728 -8.342,-8.33c-0,-4.597 3.754,-8.325 8.342,-8.325c4.588,-0 8.3,3.728 8.3,8.325Z" style="fill:#69352f;fill-rule:nonzero;"/></g></g></g></svg>